<svg id="my-svg" width="100%" xmlns="http://www.w3.org/2000/svg" xmlns:xlink="http://www.w3.org/1999/xlink" class="classDiagram" style="max-width: 677.26px; background-color: white;" viewBox="0 0 677.259765625 1103.75" role="graphics-document document" aria-roledescription="class"><style>#my-svg{font-family:DejaVu Sans,Helvetica,sans-serif;font-size:16px;fill:#000000;}@keyframes edge-animation-frame{from{stroke-dashoffset:0;}}@keyframes dash{to{stroke-dashoffset:0;}}#my-svg .edge-animation-slow{stroke-dasharray:9,5!important;stroke-dashoffset:900;animation:dash 50s linear infinite;stroke-linecap:round;}#my-svg .edge-animation-fast{stroke-dasharray:9,5!important;stroke-dashoffset:900;animation:dash 20s linear infinite;stroke-linecap:round;}#my-svg .error-icon{fill:#552222;}#my-svg .error-text{fill:#552222;stroke:#552222;}#my-svg .edge-thickness-normal{stroke-width:1px;}#my-svg .edge-thickness-thick{stroke-width:3.5px;}#my-svg .edge-pattern-solid{stroke-dasharray:0;}#my-svg .edge-thickness-invisible{stroke-width:0;fill:none;}#my-svg .edge-pattern-dashed{stroke-dasharray:3;}#my-svg .edge-pattern-dotted{stroke-dasharray:2;}#my-svg .marker{fill:#666;stroke:#666;}#my-svg .marker.cross{stroke:#666;}#my-svg svg{font-family:DejaVu Sans,Helvetica,sans-serif;font-size:16px;}#my-svg p{margin:0;}#my-svg g.classGroup text{fill:#999;stroke:none;font-family:DejaVu Sans,Helvetica,sans-serif;font-size:10px;}#my-svg g.classGroup text .title{font-weight:bolder;}#my-svg .cluster-label text{fill:#333;}#my-svg .cluster-label span{color:#333;}#my-svg .cluster-label span p{background-color:transparent;}#my-svg .cluster rect{fill:hsl(0, 0%, 98.9215686275%);stroke:#707070;stroke-width:1px;}#my-svg .cluster text{fill:#333;}#my-svg .cluster span{color:#333;}#my-svg .nodeLabel,#my-svg .edgeLabel{color:#111111;}#my-svg .noteLabel .nodeLabel,#my-svg .noteLabel .edgeLabel{color:#fff;}#my-svg .edgeLabel .label rect{fill:#eee;}#my-svg .label text{fill:#111111;}#my-svg .labelBkg{background:#eee;}#my-svg .edgeLabel .label span{background:#eee;}#my-svg .classTitle{font-weight:bolder;}#my-svg .node rect,#my-svg .node circle,#my-svg .node ellipse,#my-svg .node polygon,#my-svg .node path{fill:#eee;stroke:#999;stroke-width:1;}#my-svg .divider{stroke:#999;stroke-width:1;}#my-svg g.clickable{cursor:pointer;}#my-svg g.classGroup rect{fill:#eee;stroke:#999;}#my-svg g.classGroup line{stroke:#999;stroke-width:1;}#my-svg .classLabel .box{stroke:none;stroke-width:0;fill:#eee;opacity:0.5;}#my-svg .classLabel .label{fill:#999;font-size:10px;}#my-svg .relation{stroke:#666;stroke-width:1;fill:none;}#my-svg .dashed-line{stroke-dasharray:3;}#my-svg .dotted-line{stroke-dasharray:1 2;}#my-svg [id$="-compositionStart"],#my-svg .composition{fill:#666!important;stroke:#666!important;stroke-width:1;}#my-svg [id$="-compositionEnd"],#my-svg .composition{fill:#666!important;stroke:#666!important;stroke-width:1;}#my-svg [id$="-dependencyStart"],#my-svg .dependency{fill:#666!important;stroke:#666!important;stroke-width:1;}#my-svg [id$="-dependencyEnd"],#my-svg .dependency{fill:#666!important;stroke:#666!important;stroke-width:1;}#my-svg [id$="-extensionStart"],#my-svg .extension{fill:transparent!important;stroke:#666!important;stroke-width:1;}#my-svg [id$="-extensionEnd"],#my-svg .extension{fill:transparent!important;stroke:#666!important;stroke-width:1;}#my-svg [id$="-aggregationStart"],#my-svg .aggregation{fill:transparent!important;stroke:#666!important;stroke-width:1;}#my-svg [id$="-aggregationEnd"],#my-svg .aggregation{fill:transparent!important;stroke:#666!important;stroke-width:1;}#my-svg [id$="-lollipopStart"],#my-svg .lollipop{fill:#eee!important;stroke:#666!important;stroke-width:1;}#my-svg [id$="-lollipopEnd"],#my-svg .lollipop{fill:#eee!important;stroke:#666!important;stroke-width:1;}#my-svg .edgeTerminals{font-size:11px;line-height:initial;}#my-svg .classTitleText{text-anchor:middle;font-size:18px;fill:#000000;}#my-svg .edgeLabel[data-look="neo"]{background-color:white;text-align:center;}#my-svg .edgeLabel[data-look="neo"] p{background-color:white;}#my-svg .edgeLabel[data-look="neo"] rect{opacity:0.5;background-color:white;fill:white;}#my-svg .label-icon{display:inline-block;height:1em;overflow:visible;vertical-align:-0.125em;}#my-svg .node .label-icon path{fill:currentColor;stroke:revert;stroke-width:revert;}#my-svg .node .neo-node{stroke:#999;}#my-svg [data-look="neo"].node rect,#my-svg [data-look="neo"].cluster rect,#my-svg [data-look="neo"].node polygon{stroke:url(#my-svg-gradient);filter:drop-shadow( 1px 2px 2px rgba(185,185,185,1));}#my-svg [data-look="neo"].node path{stroke:url(#my-svg-gradient);stroke-width:1px;}#my-svg [data-look="neo"].node .outer-path{filter:drop-shadow( 1px 2px 2px rgba(185,185,185,1));}#my-svg [data-look="neo"].node .neo-line path{stroke:#999;filter:none;}#my-svg [data-look="neo"].node circle{stroke:url(#my-svg-gradient);filter:drop-shadow( 1px 2px 2px rgba(185,185,185,1));}#my-svg [data-look="neo"].node circle .state-start{fill:#000000;}#my-svg [data-look="neo"].icon-shape .icon{fill:url(#my-svg-gradient);filter:drop-shadow( 1px 2px 2px rgba(185,185,185,1));}#my-svg [data-look="neo"].icon-shape .icon-neo path{stroke:url(#my-svg-gradient);filter:drop-shadow( 1px 2px 2px rgba(185,185,185,1));}#my-svg :root{--mermaid-font-family:"trebuchet ms",verdana,arial,sans-serif;}</style><g><defs><marker id="my-svg_class-aggregationStart" class="marker aggregation class" refX="18" refY="7" markerWidth="190" markerHeight="240" orient="auto"><path d="M 18,7 L9,13 L1,7 L9,1 Z"/></marker></defs><defs><marker id="my-svg_class-aggregationEnd" class="marker aggregation class" refX="1" refY="7" markerWidth="20" markerHeight="28" orient="auto"><path d="M 18,7 L9,13 L1,7 L9,1 Z"/></marker></defs><defs><marker id="my-svg_class-aggregationStart-margin" class="marker aggregation class" refX="15" refY="7" markerWidth="190" markerHeight="240" orient="auto" markerUnits="userSpaceOnUse"><path d="M 18,7 L9,13 L1,7 L9,1 Z" style="stroke-width: 2;"/></marker></defs><defs><marker id="my-svg_class-aggregationEnd-margin" class="marker aggregation class" refX="1" refY="7" markerWidth="20" markerHeight="28" orient="auto" markerUnits="userSpaceOnUse"><path d="M 18,7 L9,13 L1,7 L9,1 Z" style="stroke-width: 2;"/></marker></defs><defs><marker id="my-svg_class-extensionStart" class="marker extension class" refX="18" refY="7" markerWidth="20" markerHeight="28" orient="auto" markerUnits="userSpaceOnUse"><path d="M 1,7 L18,13 V 1 Z"/></marker></defs><defs><marker id="my-svg_class-extensionEnd" class="marker extension class" refX="1" refY="7" markerWidth="20" markerHeight="28" orient="auto"><path d="M 1,1 V 13 L18,7 Z"/></marker></defs><marker id="my-svg_class-extensionStart-margin" class="marker extension class" refX="18" refY="7" markerWidth="20" markerHeight="28" orient="auto" markerUnits="userSpaceOnUse" viewBox="0 0 20 14"><polygon points="10,7 18,13 18,1" style="stroke-width: 2; stroke-dasharray: 0;"/></marker><defs><marker id="my-svg_class-extensionEnd-margin" class="marker extension class" refX="9" refY="7" markerWidth="20" markerHeight="28" orient="auto" markerUnits="userSpaceOnUse" viewBox="0 0 20 14"><polygon points="10,1 10,13 18,7" style="stroke-width: 2; stroke-dasharray: 0;"/></marker></defs><defs><marker id="my-svg_class-compositionStart" class="marker composition class" refX="18" refY="7" markerWidth="190" markerHeight="240" orient="auto"><path d="M 18,7 L9,13 L1,7 L9,1 Z"/></marker></defs><defs><marker id="my-svg_class-compositionEnd" class="marker composition class" refX="1" refY="7" markerWidth="20" markerHeight="28" orient="auto"><path d="M 18,7 L9,13 L1,7 L9,1 Z"/></marker></defs><defs><marker id="my-svg_class-compositionStart-margin" class="marker composition class" refX="15" refY="7" markerWidth="190" markerHeight="240" orient="auto" markerUnits="userSpaceOnUse"><path viewBox="0 0 15 15" d="M 18,7 L9,13 L1,7 L9,1 Z" style="stroke-width: 0;"/></marker></defs><defs><marker id="my-svg_class-compositionEnd-margin" class="marker composition class" refX="3.5" refY="7" markerWidth="20" markerHeight="28" orient="auto" markerUnits="userSpaceOnUse"><path d="M 18,7 L9,13 L1,7 L9,1 Z" style="stroke-width: 0;"/></marker></defs><defs><marker id="my-svg_class-dependencyStart" class="marker dependency class" refX="6" refY="7" markerWidth="190" markerHeight="240" orient="auto"><path d="M 5,7 L9,13 L1,7 L9,1 Z"/></marker></defs><defs><marker id="my-svg_class-dependencyEnd" class="marker dependency class" refX="13" refY="7" markerWidth="20" markerHeight="28" orient="auto"><path d="M 18,7 L9,13 L14,7 L9,1 Z"/></marker></defs><defs><marker id="my-svg_class-dependencyStart-margin" class="marker dependency class" refX="4" refY="7" markerWidth="190" markerHeight="240" orient="auto" markerUnits="userSpaceOnUse"><path d="M 5,7 L9,13 L1,7 L9,1 Z" style="stroke-width: 0;"/></marker></defs><defs><marker id="my-svg_class-dependencyEnd-margin" class="marker dependency class" refX="16" refY="7" markerWidth="20" markerHeight="28" orient="auto" markerUnits="userSpaceOnUse"><path d="M 18,7 L9,13 L14,7 L9,1 Z" style="stroke-width: 0;"/></marker></defs><defs><marker id="my-svg_class-lollipopStart" class="marker lollipop class" refX="13" refY="7" markerWidth="190" markerHeight="240" orient="auto"><circle fill="transparent" cx="7" cy="7" r="6"/></marker></defs><defs><marker id="my-svg_class-lollipopEnd" class="marker lollipop class" refX="1" refY="7" markerWidth="190" markerHeight="240" orient="auto"><circle fill="transparent" cx="7" cy="7" r="6"/></marker></defs><defs><marker id="my-svg_class-lollipopStart-margin" class="marker lollipop class" refX="13" refY="7" markerWidth="190" markerHeight="240" orient="auto" markerUnits="userSpaceOnUse"><circle fill="transparent" cx="7" cy="7" r="6" stroke-width="2"/></marker></defs><defs><marker id="my-svg_class-lollipopEnd-margin" class="marker lollipop class" refX="1" refY="7" markerWidth="190" markerHeight="240" orient="auto" markerUnits="userSpaceOnUse"><circle fill="transparent" cx="7" cy="7" r="6" stroke-width="2"/></marker></defs><g class="root"><g class="clusters"/><g class="edgePaths"><path d="M133.639,884.353L133.292,889.036C132.944,893.718,132.249,903.084,131.902,915.317C131.555,927.55,131.555,942.65,131.555,950.2L131.555,957.75" id="my-svg-id_ISimEngine_CpuEngine_1" class="edge-thickness-normal edge-pattern-dashed relation" style=";;;" data-edge="true" data-et="edge" data-id="id_ISimEngine_CpuEngine_1" data-points="W3sieCI6MTM0LjkxNTIyMTU4NzA1MTEyLCJ5Ijo4NjcuMTQ5OTg2MjY3MDg5OH0seyJ4IjoxMzEuNTU0Njg3NSwieSI6OTEyLjQ0OTk4NTUwNDE1MDR9LHsieCI6MTMxLjU1NDY4NzUsInkiOjk1Ny43NDk5ODQ3NDEyMTA5fV0=" data-look="classic" marker-start="url(#my-svg_class-extensionStart)"/><path d="M253.849,878.688L260.103,884.315C266.357,889.942,278.865,901.196,296.284,914.373C313.702,927.55,336.032,942.65,347.197,950.2L358.361,957.75" id="my-svg-id_ISimEngine_CudaEngine_2" class="edge-thickness-normal edge-pattern-dashed relation" style=";;;" data-edge="true" data-et="edge" data-id="id_ISimEngine_CudaEngine_2" data-points="W3sieCI6MjQxLjAyNjA3NjUyMDQyMzk0LCJ5Ijo4NjcuMTQ5OTg2MjY3MDg5OH0seyJ4IjoyOTEuMzczMDQ2ODc1LCJ5Ijo5MTIuNDQ5OTg1NTA0MTUwNH0seyJ4IjozNTguMzYxMzM3Njk2NTUxNywieSI6OTU3Ljc0OTk4NDc0MTIxMDl9XQ==" data-look="classic" marker-start="url(#my-svg_class-extensionStart)"/><path d="M310.578,217.55L310.578,225.1C310.578,232.65,310.578,247.75,310.578,261.85C310.578,275.95,310.578,289.05,310.578,295.6L310.578,302.15" id="my-svg-id_MainWindow_GolGlWidget_3" class="edge-thickness-normal edge-pattern-solid relation" style=";;;" data-edge="true" data-et="edge" data-id="id_MainWindow_GolGlWidget_3" data-points="W3sieCI6MzEwLjU3ODEyNSwieSI6MjE3LjU0OTk4Nzc5Mjk2ODc1fSx7IngiOjMxMC41NzgxMjUsInkiOjI2Mi44NDk5ODcwMzAwMjkzfSx7IngiOjMxMC41NzgxMjUsInkiOjMwOC4xNDk5ODYyNjcwODk4NH1d" data-look="classic" marker-end="url(#my-svg_class-dependencyEnd)"/><path d="M174.025,615.15L168.613,621.233C163.202,627.317,152.378,639.483,146.966,650.65C141.555,661.817,141.555,671.983,141.555,677.067L141.555,682.15" id="my-svg-id_GolGlWidget_ISimEngine_4" class="edge-thickness-normal edge-pattern-solid relation" style=";;;" data-edge="true" data-et="edge" data-id="id_GolGlWidget_ISimEngine_4" data-points="W3sieCI6MTc0LjAyNDk3OTQ0MDc4OTQ4LCJ5Ijo2MTUuMTQ5OTg2MjY3MDg5OH0seyJ4IjoxNDEuNTU0Njg3NSwieSI6NjUxLjY0OTk4NjI2NzA4OTh9LHsieCI6MTQxLjU1NDY4NzUsInkiOjY4OC4xNDk5ODYyNjcwODk4fV0=" data-look="classic" marker-end="url(#my-svg_class-dependencyEnd)"/><path d="M455.859,596.835L465.677,605.971C475.495,615.107,495.132,633.378,504.95,649.848C514.768,666.317,514.768,680.983,514.768,688.317L514.768,695.65" id="my-svg-id_GolGlWidget_CudaGlInterop_5" class="edge-thickness-normal edge-pattern-solid relation" style=";;;" data-edge="true" data-et="edge" data-id="id_GolGlWidget_CudaGlInterop_5" data-points="W3sieCI6NDU1Ljg1OTM3NSwieSI6NTk2LjgzNTQwODgxMjQwNTN9LHsieCI6NTE0Ljc2NzU3ODEyNSwieSI6NjUxLjY0OTk4NjI2NzA4OTh9LHsieCI6NTE0Ljc2NzU3ODEyNSwieSI6NzAxLjY0OTk4NjI2NzA4OTh9XQ==" data-look="classic" marker-end="url(#my-svg_class-dependencyEnd)"/><path d="M514.768,853.65L514.768,863.45C514.768,873.25,514.768,892.85,511.606,909.297C508.444,925.744,502.12,939.038,498.958,945.685L495.796,952.332" id="my-svg-id_CudaGlInterop_CudaEngine_6" class="edge-thickness-normal edge-pattern-dashed relation" style=";;;" data-edge="true" data-et="edge" data-id="id_CudaGlInterop_CudaEngine_6" data-points="W3sieCI6NTE0Ljc2NzU3ODEyNSwieSI6ODUzLjY0OTk4NjI2NzA4OTh9LHsieCI6NTE0Ljc2NzU3ODEyNSwieSI6OTEyLjQ0OTk4NTUwNDE1MDR9LHsieCI6NDkzLjIxODkyOTY0MDAxNzg1LCJ5Ijo5NTcuNzQ5OTg0NzQxMjEwOX1d" data-look="classic" marker-end="url(#my-svg_class-dependencyEnd)"/></g><g class="edgeLabels"><g class="edgeLabel"><g class="label" data-id="id_ISimEngine_CpuEngine_1" transform="translate(0, 0)"><text y="-10.1" text-anchor="middle"><tspan class="text-outer-tspan row" x="0" y="-0.1em" dy="1.1em" text-anchor="middle"/></text></g></g><g><rect class="background" style="stroke: none"/></g><g class="edgeLabel"><g class="label" data-id="id_ISimEngine_CudaEngine_2" transform="translate(0, 0)"><text y="-10.1" text-anchor="middle"><tspan class="text-outer-tspan row" x="0" y="-0.1em" dy="1.1em" text-anchor="middle"/></text></g></g><g><rect class="background" style="stroke: none"/></g><g class="edgeLabel" transform="translate(310.578125, 262.8499870300293)"><g class="label" data-id="id_MainWindow_GolGlWidget_3" transform="translate(0, -19.299999237060547)"><g><rect class="background" style="" x="-68.71875" y="-1" width="137.4375" height="40.599998474121094"/><text y="-10.1" text-anchor="middle" style=""><tspan class="text-outer-tspan row" x="0" y="-0.1em" dy="1.1em" text-anchor="middle"><tspan font-style="normal" class="text-inner-tspan" font-weight="normal">central</tspan><tspan font-style="normal" class="text-inner-tspan" font-weight="normal"> widget</tspan><tspan font-style="normal" class="text-inner-tspan" font-weight="normal"> +</tspan></tspan><tspan class="text-outer-tspan row" x="0" y="1em" dy="1.1em" text-anchor="middle"><tspan font-style="normal" class="text-inner-tspan" font-weight="normal">signals/slots</tspan></tspan></text></g></g></g><g class="edgeLabel" transform="translate(141.5546875, 651.6499862670898)"><g class="label" data-id="id_GolGlWidget_ISimEngine_4" transform="translate(0, -10.5)"><g><rect class="background" style="" x="-87.671875" y="-1" width="175.34375" height="23"/><text y="-10.1" text-anchor="middle" style=""><tspan class="text-outer-tspan row" x="0" y="-0.1em" dy="1.1em" text-anchor="middle"><tspan font-style="normal" class="text-inner-tspan" font-weight="normal">drives</tspan><tspan font-style="normal" class="text-inner-tspan" font-weight="normal"> (CPU</tspan><tspan font-style="normal" class="text-inner-tspan" font-weight="normal"> or</tspan><tspan font-style="normal" class="text-inner-tspan" font-weight="normal"> CUDA)</tspan></tspan></text></g></g></g><g class="edgeLabel" transform="translate(514.767578125, 651.6499862670898)"><g class="label" data-id="id_GolGlWidget_CudaGlInterop_5" transform="translate(0, -10.5)"><g><rect class="background" style="" x="-74.2265625" y="-1" width="148.453125" height="23"/><text y="-10.1" text-anchor="middle" style=""><tspan class="text-outer-tspan row" x="0" y="-0.1em" dy="1.1em" text-anchor="middle"><tspan font-style="normal" class="text-inner-tspan" font-weight="normal">zero-copy</tspan><tspan font-style="normal" class="text-inner-tspan" font-weight="normal"> present</tspan></tspan></text></g></g></g><g class="edgeLabel" transform="translate(514.767578125, 912.4499855041504)"><g class="label" data-id="id_CudaGlInterop_CudaEngine_6" transform="translate(0, -19.299999237060547)"><g><rect class="background" style="" x="-88.7421875" y="-1" width="177.484375" height="40.599998474121094"/><text y="-10.1" text-anchor="middle" style=""><tspan class="text-outer-tspan row" x="0" y="-0.1em" dy="1.1em" text-anchor="middle"><tspan font-style="normal" class="text-inner-tspan" font-weight="normal">copies</tspan></tspan><tspan class="text-outer-tspan row" x="0" y="1em" dy="1.1em" text-anchor="middle"><tspan font-style="normal" class="text-inner-tspan" font-weight="normal">currentDeviceBuffer()</tspan></tspan></text></g></g></g></g><g class="nodes"><g class="node default" id="my-svg-classId-MainWindow-0" data-look="classic" transform="translate(310.578125, 112.77499389648438)"><g class="basic label-container outer-path"><path d="M-204.89453125 -104.77499389648438 L204.89453125 -104.77499389648438 L204.89453125 104.77499389648438 L-204.89453125 104.77499389648438" stroke="none" stroke-width="0" fill="#eee" style=""/><path d="M-204.89453125 -104.77499389648438 C-102.40769068390642 -104.77499389648438, 0.0791498821871528 -104.77499389648438, 204.89453125 -104.77499389648438 M-204.89453125 -104.77499389648438 C-83.41819886251956 -104.77499389648438, 38.05813352496088 -104.77499389648438, 204.89453125 -104.77499389648438 M204.89453125 -104.77499389648438 C204.89453125 -27.044683600576747, 204.89453125 50.68562669533088, 204.89453125 104.77499389648438 M204.89453125 -104.77499389648438 C204.89453125 -36.52790533766357, 204.89453125 31.719183221157238, 204.89453125 104.77499389648438 M204.89453125 104.77499389648438 C81.32030457808526 104.77499389648438, -42.25392209382949 104.77499389648438, -204.89453125 104.77499389648438 M204.89453125 104.77499389648438 C43.98785399756184 104.77499389648438, -116.91882325487632 104.77499389648438, -204.89453125 104.77499389648438 M-204.89453125 104.77499389648438 C-204.89453125 42.21996563565564, -204.89453125 -20.335062625173094, -204.89453125 -104.77499389648438 M-204.89453125 104.77499389648438 C-204.89453125 53.837654171654705, -204.89453125 2.9003144468250355, -204.89453125 -104.77499389648438" stroke="#999" stroke-width="1.3" fill="none" stroke-dasharray="0 0" style=""/></g><g class="annotation-group text" transform="translate(-66.5859375, -84.77499389648438)"><g class="label" style="" transform="translate(0,-9.5)"><g><rect class="background" style="stroke: none"/><text y="-10.1" style=""><tspan class="text-outer-tspan row" x="0" y="-0.1em" dy="1.1em"><tspan font-style="normal" class="text-inner-tspan" font-weight="normal">«QMainWindow»</tspan></tspan></text></g></g></g><g class="label-group text" transform="translate(-57.78125, -65.77499389648438)"><g class="label" style="font-weight: bolder" transform="translate(0,-9.5)"><g><rect class="background" style="stroke: none"/><text y="-10.1" style=""><tspan class="text-outer-tspan row" x="0" y="-0.1em" dy="1.1em" font-weight=""><tspan font-style="normal" class="text-inner-tspan" font-weight="">MainWindow</tspan></tspan></text></g></g></g><g class="members-group text" transform="translate(-192.89453125, -22.774993896484375)"><g class="label" style="" transform="translate(0,-10)"><g><rect class="background" style="stroke: none"/><text y="-10.1" style=""><tspan class="text-outer-tspan row" x="0" y="-0.1em" dy="1.1em"><tspan font-style="normal" class="text-inner-tspan" font-weight="normal">-view_</tspan><tspan font-style="normal" class="text-inner-tspan" font-weight="normal"> GolGlWidget</tspan></tspan></text></g></g><g class="label" style="" transform="translate(0,13.850000381469727)"><g><rect class="background" style="stroke: none"/><text y="-10.1" style=""><tspan class="text-outer-tspan row" x="0" y="-0.1em" dy="1.1em"><tspan font-style="normal" class="text-inner-tspan" font-weight="normal">+panel:</tspan><tspan font-style="normal" class="text-inner-tspan" font-weight="normal"> play/pause,</tspan><tspan font-style="normal" class="text-inner-tspan" font-weight="normal"> step,</tspan><tspan font-style="normal" class="text-inner-tspan" font-weight="normal"> reset,</tspan></tspan><tspan class="text-outer-tspan row" x="0" y="1em" dy="1.1em"><tspan font-style="normal" class="text-inner-tspan" font-weight="normal">reseed</tspan></tspan></text></g></g><g class="label" style="" transform="translate(0,53.44999885559082)"><g><rect class="background" style="stroke: none"/><text y="-10.1" style=""><tspan class="text-outer-tspan row" x="0" y="-0.1em" dy="1.1em"><tspan font-style="normal" class="text-inner-tspan" font-weight="normal">+panel:</tspan><tspan font-style="normal" class="text-inner-tspan" font-weight="normal"> clear,</tspan><tspan font-style="normal" class="text-inner-tspan" font-weight="normal"> Open</tspan><tspan font-style="normal" class="text-inner-tspan" font-weight="normal"> RLE,</tspan><tspan font-style="normal" class="text-inner-tspan" font-weight="normal"> speed,</tspan><tspan font-style="normal" class="text-inner-tspan" font-weight="normal"> colour,</tspan></tspan><tspan class="text-outer-tspan row" x="0" y="1em" dy="1.1em"><tspan font-style="normal" class="text-inner-tspan" font-weight="normal">wrap</tspan></tspan></text></g></g></g><g class="methods-group text" transform="translate(-192.89453125, 101.2750015258789)"/><g class="divider" style=""><path d="M-204.89453125 -42.774993896484375 C-88.07804676210043 -42.774708831568844, 28.738437725799145 -42.774423766653314, 204.89453125 -42.77399389648438 M-204.89453125 -42.774993896484375 C-114.88654955602809 -42.77477425181854, -24.878567862056173 -42.774554607152716, 204.89453125 -42.77399389648438" stroke="#999" stroke-width="1.3" fill="none" stroke-dasharray="0 0" style=""/></g><g class="divider" style=""><path d="M-204.89453125 81.2750015258789 C-83.99713469412681 81.27529654936201, 36.90026186174637 81.27559157284512, 204.89453125 81.27600152587891 M-204.89453125 81.2750015258789 C-121.24409818127387 81.27520565634681, -37.59366511254774 81.2754097868147, 204.89453125 81.27600152587891" stroke="#999" stroke-width="1.3" fill="none" stroke-dasharray="0 0" style=""/></g></g><g class="node default" id="my-svg-classId-GolGlWidget-1" data-look="classic" transform="translate(310.578125, 461.64998626708984)"><g class="basic label-container outer-path"><path d="M-145.28125 -153.5 L145.28125 -153.5 L145.28125 153.5 L-145.28125 153.5" stroke="none" stroke-width="0" fill="#eee" style=""/><path d="M-145.28125 -153.5 C-55.22960304753009 -153.5, 34.82204390493982 -153.5, 145.28125 -153.5 M-145.28125 -153.5 C-32.0354746120567 -153.5, 81.2103007758866 -153.5, 145.28125 -153.5 M145.28125 -153.5 C145.28125 -86.18140209313017, 145.28125 -18.862804186260348, 145.28125 153.5 M145.28125 -153.5 C145.28125 -66.09853770281515, 145.28125 21.3029245943697, 145.28125 153.5 M145.28125 153.5 C67.20674031979418 153.5, -10.867769360411643 153.5, -145.28125 153.5 M145.28125 153.5 C74.8957949863637 153.5, 4.510339972727394 153.5, -145.28125 153.5 M-145.28125 153.5 C-145.28125 33.449442721904305, -145.28125 -86.60111455619139, -145.28125 -153.5 M-145.28125 153.5 C-145.28125 33.97895182994708, -145.28125 -85.54209634010584, -145.28125 -153.5" stroke="#999" stroke-width="1.3" fill="none" stroke-dasharray="0 0" style=""/></g><g class="annotation-group text" transform="translate(-75.546875, -133.5)"><g class="label" style="" transform="translate(0,-9.5)"><g><rect class="background" style="stroke: none"/><text y="-10.1" style=""><tspan class="text-outer-tspan row" x="0" y="-0.1em" dy="1.1em"><tspan font-style="normal" class="text-inner-tspan" font-weight="normal">«QOpenGLWidget»</tspan></tspan></text></g></g></g><g class="label-group text" transform="translate(-56.55859375, -114.5)"><g class="label" style="font-weight: bolder" transform="translate(0,-9.5)"><g><rect class="background" style="stroke: none"/><text y="-10.1" style=""><tspan class="text-outer-tspan row" x="0" y="-0.1em" dy="1.1em" font-weight=""><tspan font-style="normal" class="text-inner-tspan" font-weight="">GolGlWidget</tspan></tspan></text></g></g></g><g class="members-group text" transform="translate(-133.28125, -71.5)"><g class="label" style="" transform="translate(0,-10)"><g><rect class="background" style="stroke: none"/><text y="-10.1" style=""><tspan class="text-outer-tspan row" x="0" y="-0.1em" dy="1.1em"><tspan font-style="normal" class="text-inner-tspan" font-weight="normal">-engine_</tspan><tspan font-style="normal" class="text-inner-tspan" font-weight="normal"> ISimEngine</tspan></tspan></text></g></g><g class="label" style="" transform="translate(0,13)"><g><rect class="background" style="stroke: none"/><text y="-10.1" style=""><tspan class="text-outer-tspan row" x="0" y="-0.1em" dy="1.1em"><tspan font-style="normal" class="text-inner-tspan" font-weight="normal">-interop_</tspan><tspan font-style="normal" class="text-inner-tspan" font-weight="normal"> CudaGlInterop</tspan></tspan></text></g></g><g class="label" style="" transform="translate(0,36)"><g><rect class="background" style="stroke: none"/><text y="-10.1" style=""><tspan class="text-outer-tspan row" x="0" y="-0.1em" dy="1.1em"><tspan font-style="normal" class="text-inner-tspan" font-weight="normal">-grid_</tspan><tspan font-style="normal" class="text-inner-tspan" font-weight="normal"> Grid</tspan></tspan></text></g></g><g class="label" style="" transform="translate(0,59)"><g><rect class="background" style="stroke: none"/><text y="-10.1" style=""><tspan class="text-outer-tspan row" x="0" y="-0.1em" dy="1.1em"><tspan font-style="normal" class="text-inner-tspan" font-weight="normal">-initialGrid_</tspan><tspan font-style="normal" class="text-inner-tspan" font-weight="normal"> Grid</tspan></tspan></text></g></g><g class="label" style="" transform="translate(0,82)"><g><rect class="background" style="stroke: none"/><text y="-10.1" style=""><tspan class="text-outer-tspan row" x="0" y="-0.1em" dy="1.1em"><tspan font-style="normal" class="text-inner-tspan" font-weight="normal">-present_</tspan><tspan font-style="normal" class="text-inner-tspan" font-weight="normal"> Present</tspan></tspan></text></g></g></g><g class="methods-group text" transform="translate(-133.28125, 64.5)"><g class="label" style="" transform="translate(0,-9.5)"><g><rect class="background" style="stroke: none"/><text y="-10.1" style=""><tspan class="text-outer-tspan row" x="0" y="-0.1em" dy="1.1em"><tspan font-style="normal" class="text-inner-tspan" font-weight="normal">+initializeGL()</tspan></tspan></text></g></g><g class="label" style="" transform="translate(0,12.5)"><g><rect class="background" style="stroke: none"/><text y="-10.1" style=""><tspan class="text-outer-tspan row" x="0" y="-0.1em" dy="1.1em"><tspan font-style="normal" class="text-inner-tspan" font-weight="normal">+paintGL()</tspan></tspan></text></g></g><g class="label" style="" transform="translate(0,34.5)"><g><rect class="background" style="stroke: none"/><text y="-10.1" style=""><tspan class="text-outer-tspan row" x="0" y="-0.1em" dy="1.1em"><tspan font-style="normal" class="text-inner-tspan" font-weight="normal">+loadRle(path)</tspan></tspan></text></g></g><g class="label" style="" transform="translate(0,56.5)"><g><rect class="background" style="stroke: none"/><text y="-10.1" style=""><tspan class="text-outer-tspan row" x="0" y="-0.1em" dy="1.1em"><tspan font-style="normal" class="text-inner-tspan" font-weight="normal">+resetToInitial()</tspan></tspan></text></g></g></g><g class="divider" style=""><path d="M-145.28125 -91.5 C-86.5895757405116 -91.49979800671368, -27.897901481023226 -91.49959601342734, 145.28125 -91.499 M-145.28125 -91.5 C-50.48710150398284 -91.4996737564259, 44.307046992034316 -91.49934751285183, 145.28125 -91.499" stroke="#999" stroke-width="1.3" fill="none" stroke-dasharray="0 0" style=""/></g><g class="divider" style=""><path d="M-145.28125 44.5 C-82.8386402378387 44.500214902507246, -20.396030475677406 44.50042980501449, 145.28125 44.501 M-145.28125 44.5 C-69.15392993022931 44.50026199981095, 6.9733901395413795 44.500523999621905, 145.28125 44.501" stroke="#999" stroke-width="1.3" fill="none" stroke-dasharray="0 0" style=""/></g></g><g class="node default" id="my-svg-classId-ISimEngine-2" data-look="classic" transform="translate(141.5546875, 777.6499862670898)"><g class="basic label-container outer-path"><path d="M-133.5546875 -89.5 L133.5546875 -89.5 L133.5546875 89.5 L-133.5546875 89.5" stroke="none" stroke-width="0" fill="#eee" style=""/><path d="M-133.5546875 -89.5 C-40.5534128697733 -89.5, 52.44786176045341 -89.5, 133.5546875 -89.5 M-133.5546875 -89.5 C-57.74386074884127 -89.5, 18.066966002317457 -89.5, 133.5546875 -89.5 M133.5546875 -89.5 C133.5546875 -41.31031998285554, 133.5546875 6.879360034288922, 133.5546875 89.5 M133.5546875 -89.5 C133.5546875 -24.39071346926555, 133.5546875 40.7185730614689, 133.5546875 89.5 M133.5546875 89.5 C78.19450923539743 89.5, 22.834330970794866 89.5, -133.5546875 89.5 M133.5546875 89.5 C73.82631481171939 89.5, 14.09794212343877 89.5, -133.5546875 89.5 M-133.5546875 89.5 C-133.5546875 51.06313395325666, -133.5546875 12.62626790651332, -133.5546875 -89.5 M-133.5546875 89.5 C-133.5546875 43.88972651132581, -133.5546875 -1.720546977348377, -133.5546875 -89.5" stroke="#999" stroke-width="1.3" fill="none" stroke-dasharray="0 0" style=""/></g><g class="annotation-group text" transform="translate(-45.46875, -69.5)"><g class="label" style="" transform="translate(0,-9.5)"><g><rect class="background" style="stroke: none"/><text y="-10.1" style=""><tspan class="text-outer-tspan row" x="0" y="-0.1em" dy="1.1em"><tspan font-style="normal" class="text-inner-tspan" font-weight="normal">«interface»</tspan></tspan></text></g></g></g><g class="label-group text" transform="translate(-50.640625, -50.5)"><g class="label" style="font-weight: bolder" transform="translate(0,-9.5)"><g><rect class="background" style="stroke: none"/><text y="-10.1" style=""><tspan class="text-outer-tspan row" x="0" y="-0.1em" dy="1.1em" font-weight=""><tspan font-style="normal" class="text-inner-tspan" font-weight="">ISimEngine</tspan></tspan></text></g></g></g><g class="members-group text" transform="translate(-121.5546875, -7.5)"/><g class="methods-group text" transform="translate(-121.5546875, 22.5)"><g class="label" style="" transform="translate(0,-9.5)"><g><rect class="background" style="stroke: none"/><text y="-10.1" style=""><tspan class="text-outer-tspan row" x="0" y="-0.1em" dy="1.1em"><tspan font-style="normal" class="text-inner-tspan" font-weight="normal">+step()</tspan><tspan font-style="normal" class="text-inner-tspan" font-weight="normal"> :</tspan><tspan font-style="normal" class="text-inner-tspan" font-weight="normal"> void</tspan></tspan></text></g></g><g class="label" style="" transform="translate(0,12.5)"><g><rect class="background" style="stroke: none"/><text y="-10.1" style=""><tspan class="text-outer-tspan row" x="0" y="-0.1em" dy="1.1em"><tspan font-style="normal" class="text-inner-tspan" font-weight="normal">+download(Grid)</tspan><tspan font-style="normal" class="text-inner-tspan" font-weight="normal"> :</tspan><tspan font-style="normal" class="text-inner-tspan" font-weight="normal"> void</tspan></tspan></text></g></g><g class="label" style="" transform="translate(0,34.5)"><g><rect class="background" style="stroke: none"/><text y="-10.1" style=""><tspan class="text-outer-tspan row" x="0" y="-0.1em" dy="1.1em"><tspan font-style="normal" class="text-inner-tspan" font-weight="normal">+pokeCell(x,</tspan><tspan font-style="normal" class="text-inner-tspan" font-weight="normal"> y,</tspan><tspan font-style="normal" class="text-inner-tspan" font-weight="normal"> v)</tspan><tspan font-style="normal" class="text-inner-tspan" font-weight="normal"> :</tspan><tspan font-style="normal" class="text-inner-tspan" font-weight="normal"> void</tspan></tspan></text></g></g></g><g class="divider" style=""><path d="M-133.5546875 -27.5 C-72.9255847022987 -27.499773017690607, -12.296481904597414 -27.499546035381215, 133.5546875 -27.499 M-133.5546875 -27.5 C-46.48001775370281 -27.499674011180826, 40.59465199259438 -27.49934802236165, 133.5546875 -27.499" stroke="#999" stroke-width="1.3" fill="none" stroke-dasharray="0 0" style=""/></g><g class="divider" style=""><path d="M-133.5546875 -3.5 C-60.01647563528249 -3.4997246887651747, 13.521736229435021 -3.499449377530349, 133.5546875 -3.499 M-133.5546875 -3.5 C-56.638866619399366 -3.499712043724109, 20.27695426120127 -3.499424087448218, 133.5546875 -3.499" stroke="#999" stroke-width="1.3" fill="none" stroke-dasharray="0 0" style=""/></g></g><g class="node default" id="my-svg-classId-CpuEngine-3" data-look="classic" transform="translate(131.5546875, 1026.749984741211)"><g class="basic label-container outer-path"><path d="M-83.19921875 -69 L83.19921875 -69 L83.19921875 69 L-83.19921875 69" stroke="none" stroke-width="0" fill="#eee" style=""/><path d="M-83.19921875 -69 C-43.201637487103255 -69, -3.2040562242065107 -69, 83.19921875 -69 M-83.19921875 -69 C-46.58584669978499 -69, -9.972474649569975 -69, 83.19921875 -69 M83.19921875 -69 C83.19921875 -21.48098546245386, 83.19921875 26.038029075092282, 83.19921875 69 M83.19921875 -69 C83.19921875 -36.80860056557107, 83.19921875 -4.617201131142139, 83.19921875 69 M83.19921875 69 C16.890134453618884 69, -49.41894984276223 69, -83.19921875 69 M83.19921875 69 C49.51680338139394 69, 15.834388012787883 69, -83.19921875 69 M-83.19921875 69 C-83.19921875 25.761368886824606, -83.19921875 -17.47726222635079, -83.19921875 -69 M-83.19921875 69 C-83.19921875 40.64494886062911, -83.19921875 12.289897721258214, -83.19921875 -69" stroke="#999" stroke-width="1.3" fill="none" stroke-dasharray="0 0" style=""/></g><g class="annotation-group text" transform="translate(0, -49)"/><g class="label-group text" transform="translate(-48.1171875, -49)"><g class="label" style="font-weight: bolder" transform="translate(0,-9.5)"><g><rect class="background" style="stroke: none"/><text y="-10.1" style=""><tspan class="text-outer-tspan row" x="0" y="-0.1em" dy="1.1em" font-weight=""><tspan font-style="normal" class="text-inner-tspan" font-weight="">CpuEngine</tspan></tspan></text></g></g></g><g class="members-group text" transform="translate(-71.19921875, -6)"/><g class="methods-group text" transform="translate(-71.19921875, 24)"><g class="label" style="" transform="translate(0,-9.5)"><g><rect class="background" style="stroke: none"/><text y="-10.1" style=""><tspan class="text-outer-tspan row" x="0" y="-0.1em" dy="1.1em"><tspan font-style="normal" class="text-inner-tspan" font-weight="normal">+step()</tspan></tspan></text></g></g><g class="label" style="" transform="translate(0,12.5)"><g><rect class="background" style="stroke: none"/><text y="-10.1" style=""><tspan class="text-outer-tspan row" x="0" y="-0.1em" dy="1.1em"><tspan font-style="normal" class="text-inner-tspan" font-weight="normal">+pokeCell()</tspan></tspan></text></g></g></g><g class="divider" style=""><path d="M-83.19921875 -26 C-22.40453144577635 -25.99963464388117, 38.3901558584473 -25.999269287762342, 83.19921875 -25.999 M-83.19921875 -26 C-36.57873054067451 -25.99971982616598, 10.041757668650973 -25.999439652331958, 83.19921875 -25.999" stroke="#999" stroke-width="1.3" fill="none" stroke-dasharray="0 0" style=""/></g><g class="divider" style=""><path d="M-83.19921875 -2 C-33.128019289182205 -1.9996990885238282, 16.94318017163559 -1.9993981770476563, 83.19921875 -1.999 M-83.19921875 -2 C-23.628184451076464 -1.9996419976341488, 35.94284984784707 -1.999283995268298, 83.19921875 -1.999" stroke="#999" stroke-width="1.3" fill="none" stroke-dasharray="0 0" style=""/></g></g><g class="node default" id="my-svg-classId-CudaEngine-4" data-look="classic" transform="translate(460.396484375, 1026.749984741211)"><g class="basic label-container outer-path"><path d="M-166.4375 -69 L166.4375 -69 L166.4375 69 L-166.4375 69" stroke="none" stroke-width="0" fill="#eee" style=""/><path d="M-166.4375 -69 C-53.23413048643707 -69, 59.969239027125866 -69, 166.4375 -69 M-166.4375 -69 C-95.28065747682454 -69, -24.123814953649088 -69, 166.4375 -69 M166.4375 -69 C166.4375 -27.04786799975335, 166.4375 14.9042640004933, 166.4375 69 M166.4375 -69 C166.4375 -27.38636590465311, 166.4375 14.227268190693778, 166.4375 69 M166.4375 69 C77.04162966098409 69, -12.354240678031829 69, -166.4375 69 M166.4375 69 C51.51674840131061 69, -63.404003197378785 69, -166.4375 69 M-166.4375 69 C-166.4375 16.43863177265999, -166.4375 -36.12273645468002, -166.4375 -69 M-166.4375 69 C-166.4375 28.871447007140098, -166.4375 -11.257105985719804, -166.4375 -69" stroke="#999" stroke-width="1.3" fill="none" stroke-dasharray="0 0" style=""/></g><g class="annotation-group text" transform="translate(0, -49)"/><g class="label-group text" transform="translate(-53.515625, -49)"><g class="label" style="font-weight: bolder" transform="translate(0,-9.5)"><g><rect class="background" style="stroke: none"/><text y="-10.1" style=""><tspan class="text-outer-tspan row" x="0" y="-0.1em" dy="1.1em" font-weight=""><tspan font-style="normal" class="text-inner-tspan" font-weight="">CudaEngine</tspan></tspan></text></g></g></g><g class="members-group text" transform="translate(-154.4375, -6)"/><g class="methods-group text" transform="translate(-154.4375, 24)"><g class="label" style="" transform="translate(0,-9.5)"><g><rect class="background" style="stroke: none"/><text y="-10.1" style=""><tspan class="text-outer-tspan row" x="0" y="-0.1em" dy="1.1em"><tspan font-style="normal" class="text-inner-tspan" font-weight="normal">+currentDeviceBuffer()</tspan><tspan font-style="normal" class="text-inner-tspan" font-weight="normal"> :</tspan><tspan font-style="normal" class="text-inner-tspan" font-weight="normal"> devptr</tspan></tspan></text></g></g><g class="label" style="" transform="translate(0,12.5)"><g><rect class="background" style="stroke: none"/><text y="-10.1" style=""><tspan class="text-outer-tspan row" x="0" y="-0.1em" dy="1.1em"><tspan font-style="normal" class="text-inner-tspan" font-weight="normal">+pokeCell()</tspan></tspan></text></g></g></g><g class="divider" style=""><path d="M-166.4375 -26 C-37.835801155605225 -25.99961366369104, 90.76589768878955 -25.999227327382084, 166.4375 -25.999 M-166.4375 -26 C-72.00788520280041 -25.999716321097118, 22.42172959439918 -25.999432642194233, 166.4375 -25.999" stroke="#999" stroke-width="1.3" fill="none" stroke-dasharray="0 0" style=""/></g><g class="divider" style=""><path d="M-166.4375 -2 C-68.6550899996112 -1.9997062488621844, 29.127320000777587 -1.9994124977243688, 166.4375 -1.999 M-166.4375 -2 C-88.36846990176696 -1.9997654704315486, -10.299439803533915 -1.9995309408630975, 166.4375 -1.999" stroke="#999" stroke-width="1.3" fill="none" stroke-dasharray="0 0" style=""/></g></g><g class="node default" id="my-svg-classId-CudaGlInterop-5" data-look="classic" transform="translate(514.767578125, 777.6499862670898)"><g class="basic label-container outer-path"><path d="M-154.4921875 -76 L154.4921875 -76 L154.4921875 76 L-154.4921875 76" stroke="none" stroke-width="0" fill="#eee" style=""/><path d="M-154.4921875 -76 C-67.68927097815849 -76, 19.11364554368302 -76, 154.4921875 -76 M-154.4921875 -76 C-44.62261058932715 -76, 65.2469663213457 -76, 154.4921875 -76 M154.4921875 -76 C154.4921875 -39.31883633881381, 154.4921875 -2.63767267762762, 154.4921875 76 M154.4921875 -76 C154.4921875 -25.487334250465793, 154.4921875 25.025331499068415, 154.4921875 76 M154.4921875 76 C63.65887118195633 76, -27.174445136087343 76, -154.4921875 76 M154.4921875 76 C39.72039078245432 76, -75.05140593509137 76, -154.4921875 76 M-154.4921875 76 C-154.4921875 37.06839841903874, -154.4921875 -1.8632031619225131, -154.4921875 -76 M-154.4921875 76 C-154.4921875 28.54548049344985, -154.4921875 -18.909039013100298, -154.4921875 -76" stroke="#999" stroke-width="1.3" fill="none" stroke-dasharray="0 0" style=""/></g><g class="annotation-group text" transform="translate(0, -56)"/><g class="label-group text" transform="translate(-65.09375, -56)"><g class="label" style="font-weight: bolder" transform="translate(0,-9.5)"><g><rect class="background" style="stroke: none"/><text y="-10.1" style=""><tspan class="text-outer-tspan row" x="0" y="-0.1em" dy="1.1em" font-weight=""><tspan font-style="normal" class="text-inner-tspan" font-weight="">CudaGlInterop</tspan></tspan></text></g></g></g><g class="members-group text" transform="translate(-142.4921875, -13)"><g class="label" style="" transform="translate(0,-10)"><g><rect class="background" style="stroke: none"/><text y="-10.1" style=""><tspan class="text-outer-tspan row" x="0" y="-0.1em" dy="1.1em"><tspan font-style="normal" class="text-inner-tspan" font-weight="normal">-resource_</tspan><tspan font-style="normal" class="text-inner-tspan" font-weight="normal"> handle</tspan></tspan></text></g></g></g><g class="methods-group text" transform="translate(-142.4921875, 31)"><g class="label" style="" transform="translate(0,-9.5)"><g><rect class="background" style="stroke: none"/><text y="-10.1" style=""><tspan class="text-outer-tspan row" x="0" y="-0.1em" dy="1.1em"><tspan font-style="normal" class="text-inner-tspan" font-weight="normal">+registerBuffer(glId,</tspan><tspan font-style="normal" class="text-inner-tspan" font-weight="normal"> bytes)</tspan></tspan></text></g></g><g class="label" style="" transform="translate(0,12.5)"><g><rect class="background" style="stroke: none"/><text y="-10.1" style=""><tspan class="text-outer-tspan row" x="0" y="-0.1em" dy="1.1em"><tspan font-style="normal" class="text-inner-tspan" font-weight="normal">+copyFromDevice(devSrc)</tspan></tspan></text></g></g></g><g class="divider" style=""><path d="M-154.4921875 -33 C-91.90279674574252 -32.9997974350944, -29.31340599148504 -32.9995948701888, 154.4921875 -32.999 M-154.4921875 -33 C-44.033426461552736 -32.99964251020448, 66.42533457689453 -32.999285020408955, 154.4921875 -32.999" stroke="#999" stroke-width="1.3" fill="none" stroke-dasharray="0 0" style=""/></g><g class="divider" style=""><path d="M-154.4921875 11 C-79.21349183665046 11.000243632693929, -3.9347961733009242 11.000487265387859, 154.4921875 11.001 M-154.4921875 11 C-41.120124171280395 11.000366918435047, 72.25193915743921 11.000733836870092, 154.4921875 11.001" stroke="#999" stroke-width="1.3" fill="none" stroke-dasharray="0 0" style=""/></g></g></g></g></g><defs><filter id="my-svg-drop-shadow" height="130%" width="130%"><feDropShadow dx="4" dy="4" stdDeviation="0" flood-opacity="0.06" flood-color="#000000"/></filter></defs><defs><filter id="my-svg-drop-shadow-small" height="150%" width="150%"><feDropShadow dx="2" dy="2" stdDeviation="0" flood-opacity="0.06" flood-color="#000000"/></filter></defs><linearGradient id="my-svg-gradient" gradientUnits="objectBoundingBox" x1="0%" y1="0%" x2="100%" y2="0%"><stop offset="0%" stop-color="hsl(0, 0%, 83.3333333333%)" stop-opacity="1"/><stop offset="100%" stop-color="hsl(0, 0%, 88.9215686275%)" stop-opacity="1"/></linearGradient></svg>